<?xml version="1.0" standalone="no"?>
<!DOCTYPE svg PUBLIC "-//W3C//DTD SVG 20010904//EN"
 "http://www.w3.org/TR/2001/REC-SVG-20010904/DTD/svg10.dtd">
<svg version="1.0" xmlns="http://www.w3.org/2000/svg"
 width="512.000000pt" height="512.000000pt" viewBox="0 0 512.000000 512.000000"
 preserveAspectRatio="xMidYMid meet">

<g transform="translate(0.000000,512.000000) scale(0.100000,-0.100000)"
fill="#000000" stroke="none">
<path d="M1355 5113 c-201 -24 -375 -76 -544 -163 -411 -213 -701 -605 -787
-1065 -18 -94 -19 -171 -19 -1325 0 -1154 1 -1231 19 -1325 115 -617 594
-1096 1211 -1211 94 -18 171 -19 1335 -19 l1235 0 105 23 c463 102 829 377
1039 782 68 130 109 247 143 400 l23 105 0 1235 c0 1164 -1 1241 -19 1335
-107 576 -532 1036 -1093 1185 -182 49 -210 50 -1453 48 -641 0 -1178 -3
-1195 -5z m1323 -1024 c57 -12 119 -44 132 -68 6 -13 10 -160 10 -410 l0 -390
399 -3 399 -3 26 -24 c46 -43 69 -123 69 -236 0 -113 -23 -193 -69 -236 l-26
-24 -399 -3 -399 -3 0 -397 c0 -442 3 -425 -69 -461 -68 -35 -150 -46 -247
-33 -102 13 -169 43 -189 83 -13 23 -15 94 -15 418 l0 390 -399 3 -399 3 -26
24 c-46 43 -69 123 -69 236 0 113 23 193 69 236 l26 24 399 3 399 3 0 388 c0
379 1 389 21 415 56 72 201 98 357 65z m979 -2568 c116 -78 107 -447 -13 -497
-50 -21 -2118 -21 -2168 0 -25 11 -41 28 -62 72 -27 55 -29 67 -29 179 0 111
2 124 27 176 25 50 44 68 88 83 8 2 492 4 1075 3 905 -2 1063 -4 1082 -16z"/>
</g>
</svg>
