<?xml version="1.0" standalone="no"?>
<!DOCTYPE svg PUBLIC "-//W3C//DTD SVG 20010904//EN"
 "http://www.w3.org/TR/2001/REC-SVG-20010904/DTD/svg10.dtd">
<svg version="1.0" xmlns="http://www.w3.org/2000/svg"
 width="512.000000pt" height="512.000000pt" viewBox="0 0 512.000000 512.000000"
 preserveAspectRatio="xMidYMid meet">

<g transform="translate(0.000000,512.000000) scale(0.100000,-0.100000)"
fill="#000000" stroke="none">
<path d="M2250 5114 c-30 -2 -125 -8 -211 -14 -404 -27 -993 -122 -1181 -190
-274 -100 -548 -374 -648 -648 -66 -182 -155 -726 -192 -1177 -16 -194 -16
-856 0 -1050 37 -451 126 -995 192 -1177 98 -268 361 -535 634 -642 144 -57
615 -141 1007 -181 483 -48 1017 -44 1514 10 324 36 764 117 896 165 244 89
486 310 608 557 53 107 65 148 110 378 146 737 177 1474 96 2220 -36 328 -116
763 -165 897 -100 273 -375 549 -646 647 -184 67 -727 156 -1159 191 -131 11
-753 21 -855 14z m-865 -1022 c47 -24 95 -73 121 -122 25 -47 26 -182 2 -225
l-17 -30 391 -391 390 -391 54 32 c29 18 75 38 101 45 26 6 54 14 61 16 9 2
12 35 12 117 l0 113 -36 13 c-52 19 -114 78 -140 136 -62 132 1 295 135 353
46 20 156 20 202 0 134 -58 197 -221 135 -353 -26 -58 -88 -117 -140 -136
l-36 -13 0 -113 c0 -82 3 -115 13 -117 87 -24 129 -40 167 -65 l45 -29 341
340 341 340 -19 52 c-38 98 -10 206 72 280 56 51 97 66 173 66 77 0 123 -18
178 -67 177 -160 64 -453 -176 -453 -37 0 -75 8 -100 19 l-40 19 -341 -340
-341 -340 32 -54 c18 -29 38 -75 45 -101 6 -26 14 -54 16 -60 2 -10 35 -13
117 -13 l113 0 13 36 c19 52 78 114 136 140 132 62 295 -1 353 -135 20 -46 20
-156 0 -202 -58 -134 -221 -197 -353 -135 -58 26 -117 88 -136 140 l-13 36
-113 0 c-82 0 -115 -3 -117 -12 -2 -7 -10 -35 -16 -61 -7 -26 -27 -72 -45
-101 l-32 -54 392 -392 392 -392 34 18 c43 22 150 23 200 2 53 -23 114 -82
138 -133 27 -58 28 -163 2 -220 -71 -158 -277 -202 -410 -89 -82 71 -112 189
-73 290 l19 52 -391 390 -391 390 -45 -29 c-38 -25 -80 -41 -167 -65 -10 -2
-13 -35 -13 -117 l0 -113 36 -13 c52 -19 114 -78 140 -136 62 -132 -1 -295
-135 -353 -46 -20 -156 -20 -202 0 -134 58 -197 221 -135 353 26 58 88 117
140 136 l36 13 0 113 c0 82 -3 115 -12 117 -7 2 -35 10 -61 16 -26 7 -72 27
-101 45 l-54 32 -327 -327 -328 -328 17 -41 c48 -122 -9 -270 -129 -334 -57
-31 -173 -30 -231 0 -97 51 -143 128 -144 236 0 85 26 143 88 197 78 69 182
85 282 44 l34 -15 327 327 326 326 -32 54 c-18 29 -38 75 -45 101 -6 26 -14
54 -16 61 -2 9 -35 12 -117 12 l-113 0 -13 -36 c-19 -52 -78 -114 -136 -140
-132 -62 -295 1 -353 135 -20 46 -20 156 0 202 58 134 221 197 353 135 58 -26
117 -88 136 -140 l13 -36 113 0 c82 0 115 3 117 13 2 6 10 34 16 60 7 26 27
72 45 101 l32 54 -392 392 -392 392 -29 -15 c-88 -46 -205 -25 -285 50 -144
135 -95 367 94 440 46 18 154 10 202 -15z"/>
<path d="M1215 3986 c-74 -34 -107 -125 -71 -195 35 -67 135 -93 202 -52 82
50 82 183 -1 237 -34 22 -94 27 -130 10z"/>
<path d="M3683 3870 c-46 -28 -67 -65 -67 -120 0 -153 203 -195 265 -55 55
123 -83 246 -198 175z"/>
<path d="M2517 3645 c-66 -23 -97 -65 -97 -132 0 -139 179 -191 257 -74 73
108 -37 250 -160 206z"/>
<path d="M2470 2894 c-167 -44 -283 -222 -252 -386 15 -80 45 -139 98 -192 86
-87 205 -121 321 -92 129 32 225 125 258 251 19 74 19 96 0 170 -32 122 -127
218 -250 250 -72 18 -103 18 -175 -1z"/>
<path d="M1533 2680 c-118 -71 -66 -260 72 -260 80 0 139 60 139 140 0 28 -7
58 -18 74 -41 63 -131 84 -193 46z"/>
<path d="M3439 2677 c-90 -60 -88 -181 4 -237 90 -55 210 14 210 120 0 109
-124 177 -214 117z"/>
<path d="M2516 1740 c-114 -36 -130 -201 -24 -256 96 -50 208 18 208 126 0 40
-28 92 -62 114 -31 19 -86 27 -122 16z"/>
<path d="M1347 1525 c-46 -16 -64 -30 -83 -66 -50 -97 35 -220 141 -204 50 8
80 27 105 68 66 108 -44 244 -163 202z"/>
<path d="M3775 1380 c-16 -11 -38 -34 -47 -52 -59 -109 48 -237 165 -199 111
37 132 192 34 251 -42 26 -113 26 -152 0z"/>
</g>
</svg>
