<?xml version="1.0" standalone="no"?>
<!DOCTYPE svg PUBLIC "-//W3C//DTD SVG 20010904//EN"
 "http://www.w3.org/TR/2001/REC-SVG-20010904/DTD/svg10.dtd">
<svg version="1.0" xmlns="http://www.w3.org/2000/svg"
 width="512.000000pt" height="512.000000pt" viewBox="0 0 512.000000 512.000000"
 preserveAspectRatio="xMidYMid meet">

<g transform="translate(0.000000,512.000000) scale(0.100000,-0.100000)"
fill="#000000" stroke="none">
<path d="M997 5109 c-382 -56 -719 -301 -881 -642 -39 -83 -69 -167 -93 -265
-15 -61 -17 -207 -20 -1587 -3 -1039 0 -1546 7 -1602 58 -444 361 -814 780
-952 175 -58 61 -55 1715 -58 1039 -3 1546 0 1602 7 357 47 663 247 850 556
42 69 66 122 100 219 61 176 57 58 60 1720 3 1039 0 1546 -7 1602 -69 525
-469 928 -995 1003 -87 12 -3034 11 -3118 -1z m1505 -1162 c382 -100 681 -398
785 -782 24 -90 27 -117 27 -275 1 -161 -1 -183 -27 -274 -31 -113 -100 -265
-153 -339 l-36 -50 441 -441 441 -441 -102 -103 -103 -102 -441 441 -441 441
-50 -36 c-74 -53 -226 -122 -339 -153 -91 -26 -113 -28 -274 -27 -158 0 -185
3 -275 27 -384 104 -679 399 -782 785 -24 87 -27 115 -27 272 0 157 3 185 27
272 96 359 364 647 711 763 128 43 217 55 376 51 114 -3 166 -9 242 -29z"/>
<path d="M2091 3685 c-489 -92 -784 -590 -626 -1054 130 -381 520 -610 914
-536 164 32 297 101 416 220 92 91 155 189 197 307 157 443 -104 931 -558
1048 -104 27 -248 34 -343 15z"/>
</g>
</svg>
